<?xml version="1.0" standalone="no"?>
<!DOCTYPE svg PUBLIC "-//W3C//DTD SVG 20010904//EN"
 "http://www.w3.org/TR/2001/REC-SVG-20010904/DTD/svg10.dtd">
<svg version="1.0" xmlns="http://www.w3.org/2000/svg"
 width="1000.000000pt" height="1000.000000pt" viewBox="0 0 1000.000000 1000.000000"
 preserveAspectRatio="xMidYMid meet">

<g transform="translate(0.000000,1000.000000) scale(0.100000,-0.100000)"
fill="#000000" stroke="none">
<path d="M4497 6460 c-26 -16 -54 -44 -63 -62 l-15 -33 -217 -1 c-257 0 -408
-22 -593 -84 -199 -66 -335 -146 -438 -255 -70 -75 -85 -101 -106 -182 -22
-85 -7 -152 50 -211 39 -42 46 -46 101 -50 39 -2 65 1 77 10 16 12 15 18 -24
95 -32 63 -41 94 -41 132 0 173 243 343 632 441 179 46 248 53 405 46 77 -4
141 -9 143 -11 7 -7 -53 -114 -119 -210 -222 -325 -832 -1044 -1244 -1464
-461 -470 -811 -755 -1179 -959 -422 -235 -868 -302 -1085 -162 -93 59 -131
134 -131 259 0 204 127 434 389 705 275 283 596 465 831 468 91 1 130 -7 193
-38 54 -28 102 -87 118 -148 14 -51 5 -176 -16 -236 -30 -82 -85 -174 -160
-268 -41 -52 -75 -98 -75 -103 0 -34 107 23 197 105 115 105 206 251 232 374
27 126 4 212 -78 293 -66 66 -133 95 -258 111 -184 24 -385 -23 -628 -147
-390 -198 -740 -526 -855 -801 -90 -216 -91 -394 -2 -524 110 -161 321 -224
640 -190 504 55 1118 387 1802 975 155 133 517 497 677 680 516 593 854 1021
953 1208 14 26 31 47 38 47 26 0 163 -50 200 -74 20 -13 54 -42 75 -65 30 -33
36 -47 31 -64 -22 -64 5 -99 44 -57 22 23 32 62 32 120 0 77 -91 139 -266 181
l-96 23 6 43 c6 44 -6 92 -27 105 -29 19 -103 8 -150 -22z"/>
<path d="M8344 5651 c-92 -50 -176 -122 -354 -300 -189 -189 -402 -433 -645
-736 -189 -236 -287 -323 -590 -527 -240 -161 -378 -221 -505 -222 -107 -1
-150 35 -150 124 0 49 39 155 79 217 39 61 40 61 79 56 96 -13 262 36 477 142
172 84 280 153 365 231 173 161 191 323 40 364 -86 23 -260 -26 -424 -120
-196 -112 -511 -385 -637 -553 -101 -134 -158 -273 -146 -360 11 -85 91 -157
195 -177 121 -23 328 46 561 187 167 101 351 228 366 253 3 5 10 10 16 10 5 0
-1 -21 -15 -47 -34 -68 -56 -149 -56 -207 0 -45 4 -53 43 -90 52 -50 100 -66
200 -66 162 0 319 83 657 348 50 39 95 72 100 72 4 0 10 -42 13 -92 11 -182
69 -292 167 -318 61 -17 240 -8 305 15 28 10 86 38 129 63 53 29 116 54 185
72 219 58 343 123 546 286 127 102 205 179 205 204 0 34 -27 23 -107 -48 -224
-196 -353 -280 -513 -332 -87 -28 -195 -47 -188 -33 44 88 129 272 209 451
173 388 208 449 340 588 54 57 101 115 105 129 14 57 -20 95 -85 95 -41 0 -96
-39 -611 -430 -447 -340 -583 -448 -772 -619 -241 -218 -579 -394 -716 -373
-108 15 -68 181 93 387 162 207 355 415 867 932 245 247 358 368 358 383 0 11
-12 32 -26 45 -37 35 -94 33 -160 -4z m682 -618 c-4 -9 -30 -78 -58 -153 -81
-217 -135 -346 -202 -480 -110 -219 -181 -321 -248 -356 -79 -41 -207 -38
-273 8 -103 70 -119 216 -37 337 57 85 271 268 582 498 227 168 249 181 236
146z m-1895 -143 c102 -55 -222 -346 -533 -479 -137 -59 -268 -88 -291 -65
-17 17 183 207 348 331 231 174 404 251 476 213z"/>
<path d="M5064 5002 c-81 -60 -201 -196 -338 -387 -99 -138 -117 -157 -246
-264 -140 -116 -201 -162 -355 -266 -324 -218 -558 -281 -631 -170 -37 56 -11
182 59 294 l34 53 84 3 c239 9 689 233 856 427 106 122 118 241 30 293 -67 40
-217 17 -372 -56 -213 -100 -540 -362 -701 -563 -148 -184 -210 -357 -161
-452 64 -123 215 -159 405 -95 198 66 501 244 702 410 52 44 54 45 35 14 -191
-310 -191 -310 -149 -355 31 -32 74 -58 96 -58 7 0 126 112 263 248 229 225
486 465 520 485 8 4 -10 -43 -40 -105 -69 -144 -89 -219 -88 -330 1 -106 30
-179 88 -224 32 -24 49 -29 110 -32 197 -10 419 110 661 359 189 195 276 354
304 558 20 145 -8 231 -73 231 -32 0 -36 -14 -27 -75 28 -170 -76 -403 -307
-692 -149 -186 -267 -271 -408 -294 -161 -28 -214 24 -186 184 28 168 114 295
399 588 109 113 132 142 132 167 0 42 -43 82 -87 82 -98 0 -329 -180 -833
-649 -124 -115 -226 -208 -228 -206 -17 17 142 235 418 575 184 226 183 224
175 258 -9 41 -41 72 -74 72 -15 0 -46 -13 -67 -28z m-549 -118 c31 -31 -6
-95 -110 -192 -142 -132 -356 -261 -534 -321 -80 -27 -191 -40 -191 -21 0 19
135 154 245 245 284 233 526 352 590 289z"/>
</g>
</svg>
